# xmcd CD database file
#
# Track frame offsets:
#	150
#	13665
#	38798
#	62184
#	80581
#	109833
#	128682
#	157143
#	180221
#	203344
#	242538
#	270988
#	292581
#
# Disc length: 4313 seconds
#
# Revision: 0
# Processed by: cddbd v1.5.1PL0 Copyright (c) Steve Scherf et al.
# Submitted via: CDex 1.50beta9
#
DISCID=9e10d70d
DTITLE=Broadway - Jazzquintett live
DYEAR=1900
DGENRE=Jazz
TTITLE0=Take the A-Train
TTITLE1=Up Jumped Spring
TTITLE2=Joy Spring
TTITLE3=Calypso Joe
TTITLE4=There will never be another you
TTITLE5=Let him be
TTITLE6=I got Rythm
TTITLE7=St.Thomas
TTITLE8=Satin Doll
TTITLE9=Jive Samba
TTITLE10=Angel Eyes
TTITLE11=I love Paris
TTITLE12=I asked for the Blues
EXTD=
EXTT0=
EXTT1=
EXTT2=
EXTT3=
EXTT4=
EXTT5=
EXTT6=
EXTT7=
EXTT8=
EXTT9=
EXTT10=
EXTT11=
EXTT12=
PLAYORDER=
